<svg xmlns="http://www.w3.org/2000/svg" viewBox="0 0 64 64" id="aries"><path fill="#f9db03" d="M41.56,20.01a8.568,8.568,0,0,0-.58,5.73.585.585,0,0,0-.13-.02,13.785,13.785,0,0,1-1.68-.41,8.54,8.54,0,0,1-5-3.84c0-.04.01-.09.01-.13a13.761,13.761,0,0,1,.89-3.96,13.379,13.379,0,0,1,1.36-2.59,13.685,13.685,0,0,1,24.83,4.92,14.984,14.984,0,0,1-.02,6.04,8.668,8.668,0,0,1-1.97,4.26,4.657,4.657,0,0,1-.89.7,4.566,4.566,0,0,1-5.17-.43,4.437,4.437,0,0,1-.81-.81,4.084,4.084,0,0,1-.58-.99,10.047,10.047,0,0,1-.29-2.32,3.962,3.962,0,0,0,1.13,1.28,3.194,3.194,0,0,0,2.52.49,3.469,3.469,0,0,0,2.6-2.59,8.012,8.012,0,0,0-.41-4.54,8.556,8.556,0,0,0-15.2-1.87A9.619,9.619,0,0,0,41.56,20.01Z"></path><path fill="#ae9aed" d="M49.76,29.69a2.517,2.517,0,0,1,.63,2.52l-.28.03a23.181,23.181,0,0,0-8.32-2.58,8.1,8.1,0,0,0-.81-3.71,3.507,3.507,0,0,1,3.13-.21A16.4,16.4,0,0,1,49.76,29.69Z"></path><path fill="#e9e5ff" d="M41.79,29.66a23.181,23.181,0,0,1,8.32,2.58c-1.28.15-6.66.72-8.52.19l.18-2.26A4.349,4.349,0,0,0,41.79,29.66Z"></path><path fill="#e9e5ff" d="M40.98,25.95a8.1,8.1,0,0,1,.81,3.71,4.349,4.349,0,0,1-.02.51l-.18,2.26L40.38,47.25c-.35,4.26-5.64,7.55-8.29,7.55a8.351,8.351,0,0,1-4.45-1.6l.06-.09a8.694,8.694,0,0,0,1.95.27c2.65,0,7.94-3.4,8.29-7.82L39.15,30.2l.18-2.34a4.608,4.608,0,0,0,.02-.53,8.232,8.232,0,0,0-.19-2l.01-.02a13.785,13.785,0,0,0,1.68.41A1.71,1.71,0,0,1,40.98,25.95Z"></path><path fill="#fff" d="M31.91,47.18a1.37,1.37,0,0,0,1.16-.59l.43-.63.42-.64c.52-.78-.12-1.74-1.16-1.74h-1.7c-1.03,0-1.68.96-1.16,1.74l.43.64.42.63A1.383,1.383,0,0,0,31.91,47.18Zm7.25-21.85a8.232,8.232,0,0,1,.19,2,4.608,4.608,0,0,1-.02.53l-.18,2.34L37.94,45.56c-.35,4.42-5.64,7.82-8.29,7.82a8.694,8.694,0,0,1-1.95-.27l-.06.09a8.386,8.386,0,0,1-3.83-5.79l-1.6-15.69-.14-1.38a7.688,7.688,0,0,1-.03-1.17,8.245,8.245,0,0,1,.84-3.28v.03c.01,0,.03-.01.04-.01,3.64-.71,5.61-2.51,6.67-4.42,0-.05-.01-.1-.01-.15.25-.02.51-.03.77-.03h3.13c.24,0,.47.01.7.03,0,.04-.01.09-.01.13a8.54,8.54,0,0,0,5,3.84Zm-.58,9.1a2.04,2.04,0,0,0,.04-1.57.95.95,0,0,1-1.84.26.947.947,0,0,1,.55-1.22.885.885,0,0,1,.42-.05.724.724,0,0,0-.19-.11,2.036,2.036,0,1,0,1.02,2.69Zm-9.39,0a2.014,2.014,0,0,0,.04-1.56.969.969,0,0,1-.61.81.951.951,0,0,1-.67-1.78,1,1,0,0,1,.41-.06,1.14,1.14,0,0,0-.19-.1,2.034,2.034,0,1,0,1.02,2.69Z"></path><path fill="#2e1d51" d="M38.62,32.86a2.039,2.039,0,1,1-1.06-1.12.724.724,0,0,1,.19.11.885.885,0,0,0-.42.05.947.947,0,0,0-.55,1.22.95.95,0,0,0,1.84-.26Z"></path><path fill="#ae9aed" d="M31.91,47.18a1.383,1.383,0,0,1-1.16-.59l-.42-.63-.43-.64c-.52-.78.13-1.74,1.16-1.74h1.7c1.04,0,1.68.96,1.16,1.74l-.42.64-.43.63A1.37,1.37,0,0,1,31.91,47.18Z"></path><path fill="#f9db03" d="M20.28,17.72a8.572,8.572,0,0,0-13.9,3.64,8.037,8.037,0,0,0-.31,4.55,3.469,3.469,0,0,0,2.66,2.53,3.372,3.372,0,0,0,2.52-.55,3.327,3.327,0,0,0,1.09-1.3c-.1.21-.09,1.95-.23,2.32a5.054,5.054,0,0,1-.24.53,4.638,4.638,0,0,1-1.11,1.31,4.559,4.559,0,0,1-5.16.54,4.215,4.215,0,0,1-.9-.67A8.609,8.609,0,0,1,2.63,26.4a15.123,15.123,0,0,1-.17-6.03,13.713,13.713,0,0,1,24.72-5.5,13.985,13.985,0,0,1,1.41,2.56,13.467,13.467,0,0,1,.99,3.91c0,.05.01.1.01.15-1.06,1.91-3.03,3.71-6.67,4.42q-.015-.03-.03-.03a8.5,8.5,0,0,0-.18-4.33,8.832,8.832,0,0,0-1.18-2.41A8.532,8.532,0,0,0,20.28,17.72Z"></path><path fill="#2e1d51" d="M29.23,32.87a2.029,2.029,0,1,1-1.06-1.13,1.14,1.14,0,0,1,.19.1,1,1,0,0,0-.41.06.951.951,0,0,0,.67,1.78A.969.969,0,0,0,29.23,32.87Z"></path><path fill="#ae9aed" d="M22.89,25.88l-.01.01a8.245,8.245,0,0,0-.84,3.28c-.51.07-1,.15-1.47.25q-.63.1-1.2.24c-.75.17-1.43.36-2.04.56-.2.06-.38.12-.57.19-.48.17-.91.34-1.3.52-.25.11-.49.22-.71.34s-.43.22-.62.33c-.16-.02-.26-.03-.26-.03a1.967,1.967,0,0,1,.17-1.71c1.02-1.93,4.38-3.78,5.69-4.32A3.308,3.308,0,0,1,22.89,25.88Z"></path><path fill="#fff" d="M22.07,30.34l.14,1.38c-1.59.58-6.86.03-8.08-.12.19-.11.4-.22.62-.33s.46-.23.71-.34c.39-.18.82-.35,1.3-.52.18-.07.37-.13.57-.19.61-.2,1.29-.39,2.04-.56q.57-.135,1.2-.24c.47-.1.96-.18,1.47-.25A7.688,7.688,0,0,0,22.07,30.34Z"></path><path fill="#35265d" d="M29.23 32.87a.969.969 0 0 1-.61.81.951.951 0 0 1-.67-1.78 1 1 0 0 1 .41-.06 1.14 1.14 0 0 0-.19-.1 2.047 2.047 0 1 0 1.06 1.13zM38.01 33.68a.959.959 0 0 1-1.23-.56.947.947 0 0 1 .55-1.22.885.885 0 0 1 .42-.05.724.724 0 0 0-.19-.11 2.038 2.038 0 1 0 1.06 1.12A.965.965 0 0 1 38.01 33.68zM32.412 49.968V47.609a1.81 1.81 0 0 0 1.078-.738l.851-1.276a1.515 1.515 0 0 0 .081-1.579 1.853 1.853 0 0 0-1.659-.939h-1.7a1.853 1.853 0 0 0-1.659.94 1.514 1.514 0 0 0 .082 1.578l.851 1.276a1.81 1.81 0 0 0 1.077.738v2.359a.5.5 0 0 0 .144.351 2.544 2.544 0 0 1-1.365-.677.5.5 0 1 0-.691.722 3.526 3.526 0 0 0 2.455.987c.046 0 .094 0 .141 0a3.565 3.565 0 0 0 2.214-.885.5.5 0 1 0-.662-.75 2.556 2.556 0 0 1-1.383.61A.5.5 0 0 0 32.412 49.968zm-2.1-4.928a.509.509 0 0 1-.032-.552.854.854 0 0 1 .777-.411h1.7a.856.856 0 0 1 .778.411.513.513 0 0 1-.032.553l-.851 1.275a1 1 0 0 1-1.491 0z"></path><path fill="#35265d" d="M62.241,19.517A14.708,14.708,0,0,0,35.6,14.231a14.428,14.428,0,0,0-1.464,2.788,14.721,14.721,0,0,0-.847,3.291H30.449a14.47,14.47,0,0,0-.937-3.267A14.978,14.978,0,0,0,28,14.3,14.7,14.7,0,0,0,1.475,20.2a16.12,16.12,0,0,0,.182,6.429,9.323,9.323,0,0,0,2.35,4.711,5.21,5.21,0,0,0,1.105.822,5.392,5.392,0,0,0,2.641.694,5.8,5.8,0,0,0,3.639-1.332,5.372,5.372,0,0,0,1.653-2.261,6.036,6.036,0,0,0,.2-1.637c.016-.3.027-.587.05-.741a1,1,0,0,0-1.859-.724v0a2.327,2.327,0,0,1-.757.905,2.368,2.368,0,0,1-1.775.385,2.482,2.482,0,0,1-1.871-1.817,7.222,7.222,0,0,1,.3-3.967,7.574,7.574,0,0,1,12.276-3.213,7.623,7.623,0,0,1,1.1,1.254,7.782,7.782,0,0,1,1.044,2.132,7.526,7.526,0,0,1,.311,2.578,4.275,4.275,0,0,0-2.716.193c-1.323.546-5.331,2.655-6.353,5.114a2.852,2.852,0,0,0-.05,2.223,1,1,0,0,0,.826.613l.233.027h0a53.148,53.148,0,0,0,5.625.385,16.7,16.7,0,0,0,1.693-.075L22.815,47.51c.46,4.592,5.45,8.29,9.275,8.29,3.018,0,8.878-3.492,9.286-8.468L42.5,33.586c.489.045,1.038.064,1.617.064a58.732,58.732,0,0,0,6.114-.417h0l.265-.028a1,1,0,0,0,.821-.61,2.978,2.978,0,0,0-.047-2.326c-1.084-2.62-5.362-4.871-6.773-5.453a4.5,4.5,0,0,0-2.708-.239,7.5,7.5,0,0,1,.227-2.934,7.589,7.589,0,0,1,.447-1.2A8.647,8.647,0,0,1,43,19.485,7.533,7.533,0,0,1,44.07,18.2a7.573,7.573,0,0,1,12.358,2.933,6.989,6.989,0,0,1,.385,3.949,2.485,2.485,0,0,1-1.829,1.864,2.209,2.209,0,0,1-1.729-.314,3.248,3.248,0,0,1-.806-.871,1.021,1.021,0,0,0-1.322-.539c-1.287.547-.242,3.611-.23,3.639a5.459,5.459,0,0,0,1.7,2.206,5.772,5.772,0,0,0,3.539,1.254,5.425,5.425,0,0,0,2.76-.76,5.562,5.562,0,0,0,1.083-.851,9.387,9.387,0,0,0,2.238-4.753v0A16.021,16.021,0,0,0,62.241,19.517ZM21.625,17.664c.041-.041.088-.077.125-.122a2.017,2.017,0,0,0,.428-1.4l-1,.1a1.037,1.037,0,0,1-.2.661c-.016.02-.046.029-.064.047A9.571,9.571,0,0,0,5.431,21.044a9.192,9.192,0,0,0-.323,5.141,4.491,4.491,0,0,0,3.448,3.24,4.38,4.38,0,0,0,2.263-.194,3.55,3.55,0,0,1-.687.74,3.581,3.581,0,0,1-4.053.441,3.2,3.2,0,0,1-.685-.512A7.463,7.463,0,0,1,3.6,26.167a14.085,14.085,0,0,1-.158-5.624A12.659,12.659,0,0,1,15.9,10.037a12.922,12.922,0,0,1,2.251.2,12.631,12.631,0,0,1,8.213,5.206,12.978,12.978,0,0,1,1.309,2.377,12.473,12.473,0,0,1,.9,3.434l-.018.028a6.965,6.965,0,0,1-.726.968c-.044.05-.086.1-.133.153a7.093,7.093,0,0,1-.89.8c-.063.048-.129.095-.2.142A7.957,7.957,0,0,1,25.527,24c-.04.021-.084.037-.125.057a9.824,9.824,0,0,1-1.211.483c-.04.014-.079.029-.12.042a9.562,9.562,0,0,0-.406-3.333c-.094-.3-.225-.579-.345-.865A5.117,5.117,0,0,0,25.2,18.411l-.89-.456a4.209,4.209,0,0,1-1.424,1.529,9.775,9.775,0,0,0-.54-.916A9.286,9.286,0,0,0,21.625,17.664Zm-1.51,8.8a2.3,2.3,0,0,1,1.477-.1c-.027.074-.043.15-.068.224-.079.232-.155.465-.214.7-.027.105-.042.212-.064.317-.046.212-.092.425-.122.64,0,.019-.008.037-.01.055-.249.042-.487.087-.709.135-.443.074-.864.158-1.256.251-.746.169-1.462.366-2.106.577-.227.069-.442.137-.617.206-.26.092-.5.182-.721.27-.058.023-.106.045-.161.068-.139.058-.282.116-.407.172A13.9,13.9,0,0,1,20.115,26.463ZM18.38,30.949l.086-.026c.366-.1.742-.2,1.134-.29.359-.085.738-.16,1.177-.235.092-.019.2-.031.289-.049l.009.092.049.483A20.837,20.837,0,0,1,18.38,30.949ZM32.09,53.8c-2.61,0-6.914-2.786-7.285-6.491l-1.74-17.068a6.716,6.716,0,0,1-.026-1.029,7.193,7.193,0,0,1,.145-1.115c.012-.06.022-.121.036-.18a7.052,7.052,0,0,1,.322-1.033c.012-.031.025-.061.038-.092.152-.034.293-.079.442-.118s.322-.082.478-.129c.232-.069.455-.148.677-.228.141-.051.286-.1.423-.153.235-.1.458-.2.681-.308.11-.053.226-.1.333-.157a10.224,10.224,0,0,0,.889-.524l.038-.023a9.576,9.576,0,0,0,.838-.633c.085-.073.162-.154.245-.229.173-.158.346-.316.506-.487.092-.1.176-.205.264-.307.137-.16.273-.32.4-.49.086-.116.166-.24.247-.361s.159-.218.23-.334h3.241c.074.115.159.22.237.331s.158.228.242.337c.132.17.274.33.416.49.086.095.167.194.256.285.168.172.348.332.529.49.077.067.148.139.227.2a9.217,9.217,0,0,0,.841.611c.03.02.064.035.094.055q.4.251.83.469c.11.055.229.1.342.154.218.1.436.2.666.287.139.054.285.1.429.148.216.074.434.147.66.21.159.045.323.084.487.124.136.032.265.072.4.1.048.109.093.219.136.33s.084.209.12.315c.052.156.092.315.133.474.026.1.058.2.079.307.037.175.06.352.084.529.011.09.03.178.038.267a7.042,7.042,0,0,1,.03.81v.022a3.511,3.511,0,0,1-.017.43l-1.39,17.078C39.085,50.8,34.371,53.8,32.09,53.8ZM42.659,31.6l.062-.775.052.008c.52.093,1.019.2,1.5.308.12.027.238.056.356.085.422.1.831.211,1.224.327l.146.041A25.069,25.069,0,0,1,42.659,31.6Zm1.07-4.935c1.467.605,4.505,2.383,5.5,4-.049-.022-.1-.04-.152-.062-.4-.178-.812-.349-1.247-.508l-.09-.03c-.413-.149-.846-.287-1.291-.419q-.2-.058-.4-.114c-.429-.12-.87-.233-1.326-.338-.062-.014-.121-.03-.184-.044-.516-.115-1.053-.218-1.6-.313-.059-.01-.112-.023-.171-.033,0-.033-.011-.065-.014-.1-.021-.246-.061-.489-.1-.732-.021-.127-.033-.255-.06-.381a8.87,8.87,0,0,0-.275-1c-.01-.028-.014-.058-.024-.086A2.528,2.528,0,0,1,43.729,26.665Zm16.533-1.124a7.526,7.526,0,0,1-1.7,3.762,3.674,3.674,0,0,1-.689.545,3.566,3.566,0,0,1-4.045-.353,3.77,3.77,0,0,1-.692-.7,4.436,4.436,0,0,0,2.238.12,4.494,4.494,0,0,0,3.374-3.321,9.026,9.026,0,0,0-.437-5.127,9.652,9.652,0,0,0-3.707-4.744,9.511,9.511,0,0,0-11.882,1.008.9.9,0,0,1-.271-.709.5.5,0,0,0-1-.072,2.011,2.011,0,0,0,.459,1.389c.038.044.085.077.126.116a10.08,10.08,0,0,0-.706.93,10.5,10.5,0,0,0-.528.915,4.238,4.238,0,0,1-1.445-1.488.5.5,0,0,0-.879.476,5.153,5.153,0,0,0,1.909,1.923c-.113.289-.217.585-.3.89a9.484,9.484,0,0,0-.329,3.337c-.048-.014-.1-.03-.144-.045a9.888,9.888,0,0,1-1.252-.465c-.016-.008-.033-.013-.049-.021a8.062,8.062,0,0,1-1.107-.637c-.068-.046-.137-.091-.2-.139a7.177,7.177,0,0,1-.905-.775c-.05-.052-.1-.107-.146-.161a6.915,6.915,0,0,1-.726-.922c-.011-.016-.023-.03-.034-.046A12.811,12.811,0,0,1,36,17.746a12.462,12.462,0,0,1,1.262-2.4A12.685,12.685,0,0,1,60.28,19.908,14.021,14.021,0,0,1,60.262,25.541Z"></path></svg>