<svg xmlns="http://www.w3.org/2000/svg" enable-background="new 0 0 47.5 47.5" viewBox="0 0 47.5 47.5" id="horse"><defs><clipPath id="a"><path d="M0 38h38V0H0v38Z"></path></clipPath><clipPath id="b"><path d="M8 25c0-3.515.677-6.419 2-10 2.418-6.542 0-14 9-14s6.581 7.458 9 14c1.323 3.581 2 6.485 2 10 0 6-4.373 10-11 10-6.628 0-11-4-11-10"></path></clipPath><clipPath id="c"><path d="M0 38h38V0H0v38Z"></path></clipPath></defs><g clip-path="url(#a)" transform="matrix(1.25 0 0 -1.25 0 47.5)"><path fill="#c1694f" d="M0 0c0-3.038-.619-8-2-8s-3-.038-3 3S-6.5 5-6 5s6-1.962 6-5" transform="translate(13 32)"></path><path fill="#c1694f" d="M0 0c0-3.038.619-8 2-8s3-.038 3 3S6.5 5 6 5 0 3.038 0 0" transform="translate(25 32)"></path><path fill="#662113" d="M0 0c0-1.657-.448-3-1-3s-1 1.343-1 3-.552 3 0 3 2-1.343 2-3" transform="translate(11 31)"></path><path fill="#662113" d="M0 0c0-1.657.447-3 1-3 .553 0 1 1.343 1 3s.553 3 0 3-2-1.343-2-3" transform="translate(27 31)"></path><path fill="#c1694f" d="M0 0c0-3.516-.677-6.42-2-10-2.419-6.542 0-14-9-14s-6.582 7.458-9 14c-1.323 3.58-2 6.484-2 10 0 6 4.373 10 11 10S0 6 0 0" transform="translate(30 25)"></path></g><g clip-path="url(#b)" transform="matrix(1.25 0 0 -1.25 0 47.5)"><path fill="#ccd6dd" d="M0 0c4.16-6.24-2.478-8.5-8-8.5-5.523 0-12.983 2.895-8 8.5 4 4.5 6-.5 8-.5s5 5 8 .5" transform="translate(27 9.5)"></path></g><g clip-path="url(#c)" transform="matrix(1.25 0 0 -1.25 0 47.5)"><path fill="#d99e82" d="M0 0c0-9.941-1.451-22-4-22S-8-9.941-8 0c0 2 1.451 4 4 4s4-2 4-4" transform="translate(23 31)"></path><path fill="#66757f" d="M0 0c0-1.104-.671-2-1.5-2S-3-1.104-3 0s.671 2 1.5 2S0 1.104 0 0" transform="translate(16 8)"></path><path fill="#66757f" d="M0 0c0-1.104-.672-2-1.5-2S-3-1.104-3 0s.672 2 1.5 2S0 1.104 0 0" transform="translate(25 8)"></path><path fill="#292f33" d="M0 0a1.5 1.5 0 1 0-3 0v2a1.5 1.5 0 1 0 3 0V0Z" transform="translate(12 22.5)"></path><path fill="#292f33" d="M0 0a1.5 1.5 0 1 0-3 0v2a1.5 1.5 0 1 0 3 0V0Z" transform="translate(29 22.5)"></path><path fill="#662113" d="M0 0c1-2 0-6-4-8-.544-.272 3 3 1 4-.842.421-2.174-3.042-2-2 1 6-5 4-4 7 .524 1.572 2.343 2 4 2 2.75 0 4.259-1.518 5-3" transform="translate(24 34)"></path></g></svg>