<svg xmlns="http://www.w3.org/2000/svg" data-name="Layer 1" viewBox="0 0 512 512" id="ox"><path fill="#fbc56d" d="M475.28 395.56c-11.57 34.36-43.18 57.69-75.61 66.35a105.15 105.15 0 0 1-31.28 3.67 91.47 91.47 0 0 1-13.65-1.6q-.48-12.71-1-25.41a174.51 174.51 0 0 0 71.76-33.52c27.24-21.32 43.49-46.6 51.83-61.61 5.56 25.12.86 43.5-2.05 52.12Z"></path><path fill="#fdd79b" d="M397 386.35A118.17 118.17 0 0 1 278.85 504.5h-45.7a118.15 118.15 0 0 1-97.72-184.57l34.89-51.33L220 195.5h72l65.66 96.61 18.91 27.82A118.19 118.19 0 0 1 397 386.35Z"></path><path fill="#5a5a5a" d="M320.87 106.82a125.35 125.35 0 0 0 51.4-41.69A125.06 125.06 0 0 0 394.58 7.5 77.48 77.48 0 0 1 418.13 49c.8 4 6.3 34.46-14.25 60.84-25.6 32.84-67.65 28.67-70 28.4q-6.53-15.7-13.01-31.42Z"></path><path fill="#444" d="M418.13 49a77.48 77.48 0 0 0-23.55-41.5c-.11.95-.25 2-.41 3.1a74.73 74.73 0 0 1 9 23.42c.8 4 6.3 34.46-14.25 60.83-18.94 24.31-46.89 28.35-61.11 28.69l6.08 14.72c2.38.27 44.43 4.44 70-28.41 20.54-26.37 15.04-56.8 14.24-60.85Z"></path><path fill="#5a5a5a" d="M191.13 106.82a125.35 125.35 0 0 1-51.4-41.69A125.06 125.06 0 0 1 117.42 7.5 77.48 77.48 0 0 0 93.87 49c-.8 4-6.3 34.46 14.25 60.84 25.6 32.84 67.65 28.67 70 28.4q6.53-15.7 13.01-31.42Z"></path><path fill="#fccd7f" d="M452.93 188.32c-18.65 10.8-37.56 15.87-54.75 16.51-28.57 1.06-52.41-10.12-62.37-27.66-13.07-23 .09-52.75 2.79-58.56 1.78-.37 27.1-5.23 53.89 2.07 14.73 4 29.89 11.7 41.85 25.81 12.66 14.95 16.97 31.51 18.59 41.83zm-276.74-11.15c-10 17.54-33.8 28.72-62.37 27.66-17.19-.64-36.1-5.71-54.75-16.51C60.69 178 65 161.44 77.66 146.49c12-14.11 27.12-21.79 41.85-25.81 26.79-7.3 52.11-2.44 53.89-2.07 2.7 5.81 15.86 35.56 2.79 58.56zm181.47 114.94c-21 28.24-52 46.1-86.66 46.1-38.7 0-72.93-22.32-93.66-56.51a137.75 137.75 0 0 1-7-13.1L220 195.5h72z"></path><path fill="#fdd79b" d="M370.6 174.88c0 28.61-7.74 55.1-20.94 76.82-20.73 34.19-55 56.51-93.66 56.51s-72.93-22.32-93.66-56.51c-13.2-21.72-20.94-48.21-20.94-76.82 0-73.64 51.31-133.33 114.6-133.33s114.6 59.69 114.6 133.33Z"></path><path fill="#fbc56d" d="M349.66 251.7c-20.73 34.19-55 56.51-93.66 56.51s-72.93-22.32-93.66-56.51c8.61-7.57 43.55-36.54 95.79-35.74 49.58.76 82.54 27.83 91.53 35.74Z"></path><path fill="#444" d="M287.74 271.45a7.49 7.49 0 0 1-5.88-12.15l7.85-9.92a7.5 7.5 0 0 1 11.76 9.31l-7.85 9.92a7.48 7.48 0 0 1-5.88 2.84zm-63.48 0a7.48 7.48 0 0 1-5.88-2.84l-7.85-9.92a7.5 7.5 0 0 1 11.76-9.31l7.85 9.92a7.49 7.49 0 0 1-5.88 12.15z"></path><path fill="#5a5a5a" d="M196.56 146.74a7.5 7.5 0 0 1-7.5-7.5v-16.16a7.5 7.5 0 1 1 15 0v16.16a7.5 7.5 0 0 1-7.5 7.5zm114.13 0a7.49 7.49 0 0 1-7.5-7.5v-16.16a7.5 7.5 0 1 1 15 0v16.16a7.5 7.5 0 0 1-7.5 7.5z"></path><path fill="#fbc56d" d="M256 366.73a77.93 77.93 0 0 0-77.93 77.93v46.23a117.56 117.56 0 0 0 55.08 13.61h45.7a117.56 117.56 0 0 0 55.08-13.61v-46.23A77.93 77.93 0 0 0 256 366.73Z"></path><path fill="#5a5a5a" d="M504 352.92a25 25 0 1 1-48.29-13c2.31-8.57 16.54-22.4 26.56-31.31a8.94 8.94 0 0 1 14.47 3.89c4.15 12.75 9.51 31.85 7.26 40.42Z"></path><path fill="#444" d="M496.69 312.51a8.94 8.94 0 0 0-12-5.43c3.29 11.38 6.07 24.24 4.3 30.84a25.12 25.12 0 0 1-30.7 17.87c-.66-.18-1.31-.39-1.94-.61a25 25 0 0 0 47.65-2.26c2.25-8.57-3.11-27.67-7.31-40.41Z"></path></svg>