<svg xmlns="http://www.w3.org/2000/svg" viewBox="0 0 64 64" id="rooster"><path fill="#e28e58" d="M63.25 36.54c-2.77-3.94-10.9-4.05-11.82-4.05-.5 0-.94.02-1.3.05-.36.04-.71.05-1.05.05-.37 0-.73-.02-1.18-.03-1.56 1.63-1.19 4.07.66 6.72l.05.07.08-.04c4.05-1.99 8.89-2.41 12.23-2.41.83 0 1.65.03 2.46.07l.15.01-.28-.44z"></path><path fill="#df8526" d="m34.63 59.16-1.09-1.83c-.87-1.6-1.6-3.34-2.18-5.17-.75-2.36-.68-4.4.23-6.61l.33-.79c1.02-2.35 1.76-4.05-1.24-6.5-.9-.73-2.41-1.96-3.51-3.48l-.08-.11-.09.1c-2.33 2.61-6.21 7.77-6.02 13.01.11 2.93 1.49 5.59 4.1 7.91 1.93 1.72 3.74 2.56 5.53 2.56.94 0 1.88-.25 2.8-.73.31.57.64 1.12.99 1.65-1.23.66-2.5.99-3.78.99-2.25 0-4.54-1.02-6.81-3.04-3.01-2.67-4.6-5.79-4.74-9.28-.22-6.21 4.3-12.01 7.02-14.91l.04-.05-.02-.06c-.32-.89-.38-1.77-.17-2.6.54-2.16 2.73-3.85 6.72-5.17l-.04-.21c-1.29.12-2.23.39-2.25.41C17.32 28.47 3.2 41.22.47 43.83v19.51l.09.01c2.87.44 5.62.65 8.39.65 4.25 0 7.91-.51 11.46-.99 3.47-.48 7.07-.97 11.18-.97 1.76 0 3.48.09 5.24.27l.28.03-.19-.21c-.8-.87-1.57-1.87-2.29-2.97z"></path><path fill="#f16e62" d="M6.7 16.6c-.18 2.12.73 4.39 2.5 6.22 2.54 2.64 6.38 4.09 10.82 4.09.23 0 .46 0 .75-.03 3.18-1.59 6.24-2.76 9.08-3.46.07-.02 1.77-.54 3.98-.54 1.7 0 3.22.31 4.6.94 1.3.6 2.37 1.51 3.19 2.7 1.62 2.36 3.68 3.73 6.2 4.08a8.972 8.972 0 0 0 2.14.05c.51-.04 1.07-.07 1.67-.07.58 0 1.2.02 1.85.07l.1-.04c2.22-2.87 4.97-9.51-1.59-21.82l-.13-.24-.07.25c-.46 1.81-1.4 4.28-3.27 5.76-.47.37-1.03.57-1.62.57-.4 0-.78-.09-1.15-.26a2.585 2.585 0 0 1-1.45-2.33c0-.36 0-.75.01-1.25.03-2.61.07-6.18-.88-8.73l-.1-.26-.1.26c-1.19 3.08-2.89 6.99-5.61 9.89-.18.19-.42.3-.73.3h-.01a.959.959 0 0 1-.71-.35l-.07-.08c-1.5-1.9-5.3-6.86-8.14-12.01L27.81 0l-.03.35c-.29 3.14-.13 6.39.48 9.65a.94.94 0 0 1-.3.89c-.18.16-.4.24-.64.24-.09 0-.19-.01-.28-.04-.57-.18-5.73-1.95-10.14-7.31l-.18.1c.66 2.02 1.91 4.44 3.7 7.18.27.4.19.94-.17 1.25-.64.55-1.32.81-2.09.81-1.98 0-4.15-1.86-6.07-3.5-.67-.59-1.36-1.17-2.03-1.69l-.32-.26.16.38c.67 1.62.94 3.38.79 5.23-.03.44-.37.8-.81.87-.05.01-.1.01-.16.01-.37 0-.73-.24-.88-.6-.01-.01-.14-.27-.55-.62-.35-.31-1-.74-2.1-1.11l-.21-.07.08.21c.56 1.49.77 3.05.64 4.63z"></path><path fill="#f16e62" d="m47.43 41-.1-.12c-.03-.03-.05-.07-.08-.12-3.15-4.07-2.56-6.89-1.52-8.54l.07-.12-.13-.04c-2.21-.73-4.11-2.23-5.65-4.47a5.466 5.466 0 0 0-2.22-1.9c-8.05 1.62-9.74 3.83-10.03 5-.57 2.28 2.66 4.9 4.04 6.02 4.19 3.42 2.84 6.53 1.85 8.79l-.13.3c-.07.15-.13.3-.19.45-.73 1.8-.79 3.39-.18 5.31 1.82 5.71 4.9 9.42 6.98 10.86.26.19.55.34.89.46.42.16.88.25 1.37.26l.21.01c1.16 0 2.34-.43 3.24-1.19 8.21-7.02 3.54-18.12 2.97-19.39-.54-.55-.99-1.07-1.39-1.57zm-11.18-5.71c-1.89 0-3.42-1.54-3.42-3.42 0-1.89 1.54-3.43 3.42-3.43 1.89 0 3.43 1.54 3.43 3.43.01 1.88-1.53 3.42-3.43 3.42z"></path><path fill="#e28e58" d="M36.25 30.16c-.94 0-1.7.76-1.7 1.71 0 .94.76 1.7 1.7 1.7s1.71-.76 1.71-1.7-.76-1.71-1.71-1.71z"></path></svg>