<svg xmlns="http://www.w3.org/2000/svg" viewBox="0 0 64 64" id="tiger"><path fill="#e29375" d="M15.92 8a5.19 5.19 0 0 0-2.57.55c-1.21.69-5.42 9 1.17 16.19l11.79-9.92C22.56 9.68 18.64 8.07 15.92 8Zm32.16 0c-2.72 0-6.64 1.65-10.39 6.82l11.79 9.92c6.59-7.15 2.38-15.5 1.16-16.19A5.12 5.12 0 0 0 48.08 8Z"></path><path fill="#e7a990" d="M11.31 39.58a10.41 10.41 0 0 1-1.9 4.14s3.88 2.22 6 .68c-1.69 1.91-.84 5.09-.84 5.09s2.44.13 5.84.25a12.14 12.14 0 0 1 3.1.71h17.02a12.08 12.08 0 0 1 3.09-.71c3.4-.12 5.84-.25 5.84-.25s.85-3.18-.84-5.09c2.09 1.54 6-.68 6-.68a10.58 10.58 0 0 1-1.9-4.14c-1.57-1.23-2-2.45-.67-3.69 0-.19-.05-.37-.06-.57s0-.34 0-.51a22.35 22.35 0 0 0-.13-2.31c-.07-.61-.17-1.22-.28-1.82-1.9-1.46-2.72-3.16-1.77-5.25A19.91 19.91 0 0 0 32 14a19.9 19.9 0 0 0-17.79 11.38c1.38 3.19-.35 4.11-1.77 5.26-.12.6-.21 1.21-.28 1.82a19.83 19.83 0 0 0-.13 2.3v.52l-.06.56q1.6 2.26-.66 3.74Z"></path><path fill="#e29375" d="M25.76 52.56A3.4 3.4 0 0 0 29.17 56h5.66a3.4 3.4 0 0 0 3.41-3.41l-1.12-3.21s-4.48-.9-4.88-1a10.39 10.39 0 0 0-2.62 1Z"></path><path fill="#e7a990" d="M24 39.62c-2.54 2.52-3.93 7.54.46 11.93C28 55.14 32 51.42 32 51.42s4 3.72 7.57.13c4.39-4.39 3-9.41.46-11.93Z"></path><path fill="#756d78" d="M36.28 42.35c.41.59.55 1.88-.61 2.14s-2 1.8-3.67 1.88c-1.7-.08-2.52-1.62-3.67-1.88s-1-1.55-.61-2.14c.66-1 2.85-1.1 4.28-1.1s3.62.15 4.28 1.1Z"></path><path fill="#e7a990" d="M16.32 8.05A7.48 7.48 0 0 1 21 17.41a3.27 3.27 0 0 0 1.19.88l4.08-3.44c-3.53-4.92-7.27-6.61-9.95-6.8Zm31.36 0c-2.7.19-6.42 1.88-10 6.8l4.19 3.52a2.51 2.51 0 0 0 1.07-1 7.49 7.49 0 0 1 4.74-9.32Z"></path><path fill="#e29375" d="M32 14q-.77 0-1.5.06a20 20 0 0 1 16.3 11.33 21.65 21.65 0 0 1 1.77 5.25c.11.6.21 1.21.28 1.82a19.87 19.87 0 0 1 .15 2.35v.51l.06.57a22.59 22.59 0 0 0 .67 3.69 10.58 10.58 0 0 0 1.9 4.14 11.54 11.54 0 0 1-2.44 1c2.16.88 5.43-1 5.43-1a10.58 10.58 0 0 1-1.9-4.14c-1.57-1.23-2-2.45-.67-3.69 0-.19-.05-.37-.06-.57s0-.34 0-.51a22.35 22.35 0 0 0-.13-2.31c-.07-.61-.17-1.22-.28-1.82-1.9-1.46-2.72-3.16-1.77-5.25A19.91 19.91 0 0 0 32 14ZM12.39 44.4a2.39 2.39 0 0 1-.54.3l.26.07c.09-.13.18-.25.28-.37Zm31.23 5.34c3.4-.12 5.84-.25 5.84-.25s.75-2.8-.56-4.72a4 4 0 0 1-3.27-.37c1.69 1.91.84 5.09.84 5.09Z"></path><path fill="#756d78" d="M52 35.89a42.87 42.87 0 0 1-6.69.61c-2.76-.07 1.21 3.55 7.35 3.08a22.59 22.59 0 0 1-.66-3.69zm-40 0a22.59 22.59 0 0 1-.67 3.69c6.15.47 10.12-3.15 7.36-3.08a42.87 42.87 0 0 1-6.69-.61zm37.79-10.5c-2.68 1.44-6 3-7.83 3.2-3.4.3-.67 2.45 4.4 2.77a13.69 13.69 0 0 0 5.2-.72 21.65 21.65 0 0 0-1.77-5.25zm-35.58-.01a21.72 21.72 0 0 0-1.77 5.26 13.69 13.69 0 0 0 5.2.72c5.07-.32 7.8-2.47 4.4-2.77-1.84-.16-5.16-1.76-7.83-3.21z"></path><path fill="#655e66" d="M52 35.89c-.9.14-1.92.27-2.94.39a23.12 23.12 0 0 0 .59 3.2 14.09 14.09 0 0 0 3 .1 22.59 22.59 0 0 1-.65-3.69zm-2.21-10.5c-.77.41-1.6.84-2.43 1.25a21.29 21.29 0 0 1 1.21 4c0 .22.07.43.11.65a13.57 13.57 0 0 0 2.88-.65 21.65 21.65 0 0 0-1.77-5.25z"></path><path d="M55.09 44.59a1 1 0 0 0 .49-.72 1 1 0 0 0-.25-.83S53.45 40.9 53 35.3a22.42 22.42 0 0 0-2.3-10.4 13.67 13.67 0 0 0 3.25-11.25c-.47-3-1.81-5.39-2.78-5.94-2.64-1.48-8.44-1-13.82 6A20.31 20.31 0 0 0 32 13a19.9 19.9 0 0 0-5.31.73c-5.38-7-11.18-7.49-13.82-6-1 .55-2.32 3-2.79 5.94a13.68 13.68 0 0 0 3.25 11.24 22.6 22.6 0 0 0-2.16 7.46A19.2 19.2 0 0 0 11 35.3c-.45 5.6-2.31 7.7-2.32 7.7a1 1 0 0 0 .23 1.56A10.6 10.6 0 0 0 13.5 46a8.54 8.54 0 0 0 .05 3.8 1 1 0 0 0 .92.74s2.44.13 5.85.25a10.4 10.4 0 0 1 2.54.57 12.28 12.28 0 0 0 .84.94 6.8 6.8 0 0 0 1.1.9 4.4 4.4 0 0 0 4.37 3.8h5.66a4.4 4.4 0 0 0 4.35-3.82 6.8 6.8 0 0 0 1.1-.9 12.28 12.28 0 0 0 .84-.94 10.4 10.4 0 0 1 2.54-.57c3.41-.12 5.85-.25 5.85-.25a1 1 0 0 0 .92-.74 8.54 8.54 0 0 0 0-3.8 10.6 10.6 0 0 0 4.66-1.39ZM51.15 37c.08.56.17 1.08.28 1.57a11.77 11.77 0 0 1-5-1.1 46.74 46.74 0 0 0 4.72-.47Zm-.79-7a12.6 12.6 0 0 1-3.94.41 13.52 13.52 0 0 1-4.06-.81 25.87 25.87 0 0 0 7-2.79 20.91 20.91 0 0 1 1 3.19ZM52 14.82A11.68 11.68 0 0 1 49.63 23a21.55 21.55 0 0 0-5.78-6.17A6.44 6.44 0 0 1 47.91 9a4.39 4.39 0 0 1 2.21.4A9.7 9.7 0 0 1 52 14.82Zm-9.46-3.65a8.82 8.82 0 0 0-.92 4.29 19.76 19.76 0 0 0-2.33-1.09 18 18 0 0 1 3.29-3.2Zm-17.91 3.2a22.58 22.58 0 0 0-2.34 1.09 8.76 8.76 0 0 0-.93-4.3 18.42 18.42 0 0 1 3.31 3.21ZM12 14.82a9.94 9.94 0 0 1 1.89-5.36 4.4 4.4 0 0 1 2.26-.41 6.43 6.43 0 0 1 4 7.79A21.53 21.53 0 0 0 14.37 23 11.76 11.76 0 0 1 12 14.82Zm2.74 11.94a25.75 25.75 0 0 0 7 2.79 13.52 13.52 0 0 1-4.06.81 12.6 12.6 0 0 1-4.04-.36 18.63 18.63 0 0 1 1.05-3.24Zm2.83 10.73a11.77 11.77 0 0 1-4.95 1.1c.11-.49.2-1 .28-1.57a46.74 46.74 0 0 0 4.62.47ZM34.83 55h-5.66a2.39 2.39 0 0 1-1.87-.91c.21 0 .42.06.63.06A7.18 7.18 0 0 0 32 52.71a6.88 6.88 0 0 0 4.69 1.36 2.38 2.38 0 0 1-1.86.93Zm.72-11.49a.19.19 0 0 1-.1 0 4.46 4.46 0 0 0-1.75 1 3.16 3.16 0 0 1-1.66.87 3.11 3.11 0 0 1-1.74-.87 4.46 4.46 0 0 0-1.75-1 .26.26 0 0 1-.1 0 .76.76 0 0 1 .09-.56s.5-.67 3.46-.67 3.44.64 3.46.67a.76.76 0 0 1 .09.53Zm13.66.12a1 1 0 0 0-1.34 1.46 4.56 4.56 0 0 1 .75 3.47c-1 0-2.8.13-5 .21a8.63 8.63 0 0 0-.93.11 8.83 8.83 0 0 0 .76-3.56 9.14 9.14 0 0 0-2.67-6.38 1 1 0 0 0-1.42 0 1 1 0 0 0 0 1.41 7.15 7.15 0 0 1 2.08 5 7.88 7.88 0 0 1-2.55 5.55c-2.4 2.4-5 .82-5.86.12V47.2a5.79 5.79 0 0 0 1.93-1.13 3.23 3.23 0 0 1 1-.61 2.06 2.06 0 0 0 1.53-1.26 2.71 2.71 0 0 0-.32-2.42c-.71-1-2.38-1.53-5.1-1.53s-4.39.5-5.1 1.53a2.71 2.71 0 0 0-.32 2.42 2.06 2.06 0 0 0 1.53 1.26 3.23 3.23 0 0 1 1 .61A5.73 5.73 0 0 0 31 47.18V51c-.91.7-3.46 2.28-5.86-.12a7.88 7.88 0 0 1-2.55-5.55 7.15 7.15 0 0 1 2.08-5 1 1 0 0 0 0-1.41 1 1 0 0 0-1.42 0 9.14 9.14 0 0 0-2.67 6.38 8.83 8.83 0 0 0 .76 3.56 8.63 8.63 0 0 0-.93-.11c-2.24-.08-4.06-.16-5-.21a4.56 4.56 0 0 1 .75-3.47 1 1 0 0 0-1.34-1.46c-.94.69-2.7.21-3.9-.28a14.56 14.56 0 0 0 1.16-2.71h.35c4 0 7.08-1.57 7.89-2.84a1.41 1.41 0 0 0 .1-1.52 1.78 1.78 0 0 0-1.75-.76A38.44 38.44 0 0 1 13 35a17.13 17.13 0 0 1 .23-3.15 14.65 14.65 0 0 0 3.58.5h.86c3.28-.21 6.83-1.25 6.85-3.06 0-.68-.41-1.53-2.43-1.7-1.2-.11-3.52-1-6.56-2.63A18.81 18.81 0 0 1 32 15a18.81 18.81 0 0 1 16.44 10c-3 1.59-5.36 2.52-6.56 2.63-2 .17-2.44 1-2.43 1.7 0 1.81 3.57 2.85 6.85 3.06h.86a14.57 14.57 0 0 0 3.57-.5A15.88 15.88 0 0 1 51 35a38.44 38.44 0 0 1-5.61.47 1.78 1.78 0 0 0-1.75.76 1.41 1.41 0 0 0 .1 1.52c.81 1.27 3.91 2.84 7.89 2.84H52a14.27 14.27 0 0 0 1.16 2.71c-1.24.51-3 .99-3.95.3Z"></path><path d="M27.11 34.5a1 1 0 0 0-1 1v1.24a1 1 0 0 0 2 0V35.5a1 1 0 0 0-1-1zm8.46 0a1 1 0 0 0-1 1v1.24a1 1 0 0 0 2 0V35.5a1 1 0 0 0-1-1z"></path></svg>